<svg role="graphics-document" title="powerfleet_logo" id="a" data-name="Layer 1" xmlns="http://www.w3.org/2000/svg" viewBox="0 0 33.05359 6.8" preserveAspectRatio="xMinYMid meet">
<g>
<g>
<g>
<circle cx="16.69933" cy="1.36255" r=".47912" style="fill: #fff;"></circle>
<polygon points="16.6989 0 16.69744 .00002 16.69816 .00003 16.69889 .00002 16.6989 0" style="fill: #fff;"></polygon>
<path d="m18.23984,1.36232h-.00003c-.00236-.03738-.01945-.07254-.04591-.09923-.08847-.08926-.15509-.19831-.19275-.31559-.15108-.47027-.54517-.82306-1.02851-.92069-.08944-.01806-.1827-.02695-.27448-.02678-.09179-.00016-.18577.00872-.27521.02678-.48335.09763-.87744.45042-1.02851.92069-.03766.11728-.10427.22633-.19275.31559-.02646.02669-.04355.06184-.04591.09923h-.00003s.00001.00008.00001.00013c0,.00004-.00001.00008-.00001.00013h.00003c.00236.03738.01945.07254.04591.09923.08848.08926.15509.19831.19275.31559.12769.39749.42901.71101.81109.8575.02345.00899.03808.03239.03606.05743-.01852.22933-.13809.32099-.32636.3833-.05722.01894-.11614.03203-.17541.04295-.22452.04136-.39362.2409-.38732.47882.00671.25319.21599.45866.46926.46099.24126.00222.44126-.1759.47366-.40773.00256-.01695.00557-.05872.00573-.06229.00966-.21273.13506-.36952.316-.40968.05309-.01178.10845-.01178.16154,0,.18094.04016.30633.19694.316.40968.00016.00357.00317.04534.00573.06229.03239.23182.23238.40994.47364.40773.25327-.00232.46255-.20779.46927-.46098.00631-.23792-.16279-.43746-.38732-.47882-.05928-.01092-.1182-.02401-.17542-.04295-.18828-.06232-.30786-.154-.32635-.38339-.00202-.02503.0126-.04843.03605-.05742.38197-.14652.6832-.46.81087-.85741.03766-.11728.10428-.22633.19275-.31559.02646-.02669.04355-.06185.04591-.09923h.00003s-.00001-.00008-.00001-.00013c0-.00004.00001-.00008.00001-.00013Zm-1.55622.82688c-.44184-.00819-.80242-.38501-.81112-.82675.00869-.44175.36928-.81856.81112-.82675.46388-.0086.84258.36485.84264.82675-.00006.46191-.37875.83535-.84264.82675Z" style="fill: #fff;"></path>
</g>
<path d="m1.1352.39448H0v3.00138h.56474v-.97464h.57045c.55875,0,1.01335-.45461,1.01335-1.0134,0-.55876-.45459-1.01335-1.01335-1.01335Zm.44864,1.01335c0,.24738-.20125.44864-.44864.44864h-.57045v-.89723h.57045c.24739,0,.44864.20123.44864.44859Z" style="fill: #fff;"></path>
<polygon points="8.23524 2.32463 7.71423 .52531 7.67516 .39448 7.19107 .39448 7.15194 .52563 6.63103 2.32463 6.0713 .39448 5.50328 .39448 6.37869 3.39587 6.88345 3.39587 6.92176 3.26456 7.43313 1.46804 7.94455 3.2648 7.98279 3.39587 8.48758 3.39587 9.36301 .39448 8.79498 .39448 8.23524 2.32463" style="fill: #fff;"></polygon>
<polygon points="9.78373 3.39587 11.93237 3.39587 11.93237 2.87173 10.34853 2.87173 10.34853 2.15727 11.68863 2.15727 11.68863 1.63313 10.34853 1.63313 10.34853 .91868 11.93237 .91868 11.93237 .39448 9.78373 .39448 9.78373 3.39587" style="fill: #fff;"></polygon>
<path d="m14.60315,1.40783c0-.55876-.45459-1.01335-1.01335-1.01335h-1.1352v3.00138h.56474v-.97464h.374l.64263.97464h.66127l-.69922-1.06027c.36385-.16058.60512-.52747.60512-.92777Zm-.56473,0c0,.24738-.20125.44864-.44862.44864h-.57045v-.89723h.57045c.24737,0,.44862.20123.44862.44859Z" style="fill: #fff;"></path>
<polygon points="18.82408 3.39587 19.38881 3.39587 19.38881 2.25876 20.72894 2.25876 20.72894 1.73462 19.38881 1.73462 19.38881 .91868 20.97264 .91868 20.97264 .39448 18.82408 .39448 18.82408 3.39587" style="fill: #fff;"></polygon>
<polygon points="22.06397 .39448 21.49925 .39448 21.49925 3.39587 23.28225 3.39587 23.28225 2.87173 22.06397 2.87173 22.06397 .39448" style="fill: #fff;"></polygon>
<polygon points="23.80504 3.39587 25.95368 3.39587 25.95368 2.87173 24.36984 2.87173 24.36984 2.15727 25.70994 2.15727 25.70994 1.63313 24.36984 1.63313 24.36984 .91868 25.95368 .91868 25.95368 .39448 23.80504 .39448 23.80504 3.39587" style="fill: #fff;"></polygon>
<polygon points="26.47878 3.39587 28.62742 3.39587 28.62742 2.87173 27.04358 2.87173 27.04358 2.15727 28.38368 2.15727 28.38368 1.63313 27.04358 1.63313 27.04358 .91868 28.62742 .91868 28.62742 .39448 26.47878 .39448 26.47878 3.39587" style="fill: #fff;"></polygon>
<polygon points="29.09121 .39448 29.09121 .91868 29.82224 .91868 29.82224 3.39587 30.38694 3.39587 30.38694 .91868 31.11794 .91868 31.11794 .39448 29.09121 .39448" style="fill: #fff;"></polygon>
<path d="m3.97749.34081c-.84109-.01481-1.53859.65814-1.55333,1.49991-.01469.84178.65819,1.53858,1.49994,1.55329.00917.00016.01828.00025.02741.00025.39763,0,.7731-.15157,1.05988-.4285.29339-.28331.45888-.66389.46601-1.07165s-.14497-.7939-.42825-1.08728c-.2833-.29338-.6639-.45888-1.07165-.46601Zm-.04357,2.49117c-.25765-.0045-.49814-.10907-.67713-.29445-.17901-.18537-.2751-.42934-.27058-.68698.0092-.52618.44013-.94786.96434-.94786.00565,0,.01142.00005.01709.00014.53186.00931.957.44958.9477.98144-.0045.25764-.10906.4981-.29443.67711-.18541.17901-.43017.27465-.68699.2706Z" style="fill: #fff;"></path>
</g>
<path d="m32.36593,1.73213c-.09295,0-.1829-.01818-.26779-.05406-.08189-.03462-.1554-.08426-.21863-.14733-.06308-.06323-.11271-.13674-.14733-.21863-.03588-.08489-.05406-.17484-.05406-.26764,0-.09295.01818-.1829.05406-.26779.03462-.08189.08426-.1554.14733-.21863.06323-.06308.13674-.11271.21863-.14733.08489-.03588.17484-.05406.26779-.05406.09279,0,.18274.01818.26764.05406.08189.03462.1554.08426.21863.14733.06308.06323.11271.13674.14733.21863.03588.08489.05406.17484.05406.26779,0,.09279-.01818.18274-.05406.26764-.03462.08189-.08426.1554-.14733.21863-.06323.06308-.13674.11271-.21863.14733-.08489.03588-.17484.05406-.26764.05406Zm0-1.24601c-.07541,0-.1486.0147-.21736.04379-.0664.02814-.12615.06845-.17753.11967-.05122.05138-.09153.11113-.11967.17753-.02909.06877-.04379.14196-.04379.21736,0,.07525.0147.14844.04379.21721.02814.06655.06845.12615.11967.17753.05138.05122.11113.09153.17753.11967.06877.02909.14196.04379.21736.04379.07525,0,.14844-.0147.21721-.04379.0664-.02814.12615-.06845.17753-.11967.05122-.05138.09153-.11097.11967-.17753.02909-.06877.04379-.14196.04379-.21721,0-.07541-.0147-.1486-.04379-.21736-.02814-.0664-.06845-.12615-.11967-.17753-.05138-.05122-.11113-.09153-.17753-.11967-.06877-.02909-.14196-.04379-.21721-.04379Zm.15982.96004l-.17658-.26779h-.11904v.26779h-.1339v-.80338h.30115c.14797,0,.26795.11983.26795.26779,0,.11398-.0713.21136-.17168.24993l.18828.28566h-.15619Zm-.29562-.40169h.16725c.07398,0,.13405-.06007.13405-.1339,0-.07398-.06007-.1339-.13405-.1339h-.16725v.26779Z" style="fill: #fff;"></path>
</g>
<g>
<path d="m7.4395,5.51878c0,.23606-.19102.42707-.4263.42707h-.31759v.46823h-.16462v-1.32238h.48221c.23528,0,.4263.1918.4263.42707Zm-.16462,0c0-.14443-.11725-.26168-.26168-.26168h-.31759v.52336h.31759c.14443,0,.26168-.11725.26168-.26168Z" style="fill: #fff;"></path>
<path d="m7.72059,6.0103c.02407.14598.15064.25702.30361.25702.09939,0,.18791-.04737.2446-.12113l.13744.09163c-.08619.11803-.22518.1949-.38204.1949-.2446,0-.44493-.18558-.47056-.42242-.00155-.01708-.00233-.03339-.00233-.05047,0-.03028.00233-.05901.00776-.08774.04115-.21897.23373-.38514.46512-.38514.23062,0,.42319.16617.46435.38514.00544.02873.00776.05746.00776.08774,0,.01708-.00078.03339-.00233.05047h-.77339Zm.5979-.13822c-.03727-.12735-.1553-.21975-.29429-.21975-.13977,0-.2578.0924-.29507.21975h.58936Z" style="fill: #fff;"></path>
<path d="m9.59739,5.95983c0,.2609-.21121.47289-.47211.47289-.26168,0-.47289-.21198-.47289-.47289,0-.26168.21121-.47289.47289-.47289.2609,0,.47211.21121.47211.47289Zm-.16462,0c0-.17005-.13822-.30749-.30749-.30749-.17005,0-.30827.13744-.30827.30749,0,.16928.13822.30749.30827.30749.16928,0,.30749-.13822.30749-.30749Z" style="fill: #fff;"></path>
<path d="m10.75515,5.95983c0,.2609-.21198.47289-.47289.47289-.13123,0-.23606-.05358-.30749-.13977v.50705h-.16539v-1.2952h.16539v.12113c.07144-.08619.17627-.13899.30749-.13899.2609,0,.47289.21121.47289.47289Zm-.16539,0c0-.17005-.13744-.30749-.30749-.30749s-.30749.13744-.30749.30749c0,.16928.13744.30749.30749.30749s.30749-.13822.30749-.30749Z" style="fill: #fff;"></path>
<path d="m10.96558,5.0917h.16539v1.32238h-.16539v-1.32238Z" style="fill: #fff;"></path>
<path d="m11.51457,6.0103c.02407.14598.15064.25702.30361.25702.09939,0,.18791-.04737.2446-.12113l.13744.09163c-.08619.11803-.22518.1949-.38204.1949-.2446,0-.44493-.18558-.47056-.42242-.00155-.01708-.00233-.03339-.00233-.05047,0-.03028.00233-.05901.00776-.08774.04115-.21897.23373-.38514.46512-.38514.23062,0,.42319.16617.46435.38514.00544.02873.00776.05746.00776.08774,0,.01708-.00078.03339-.00233.05047h-.77339Zm.5979-.13822c-.03727-.12735-.1553-.21975-.29429-.21975-.13977,0-.2578.0924-.29507.21975h.58936Z" style="fill: #fff;"></path>
<path d="m13.92638,5.51878c0,.23606-.1918.42707-.42707.42707h-.31759v.46823h-.16462v-1.32238h.48221c.23528,0,.42707.1918.42707.42707Zm-.16539,0c0-.14443-.11725-.26168-.26168-.26168h-.31759v.52336h.31759c.14443,0,.26168-.11725.26168-.26168Z" style="fill: #fff;"></path>
<path d="m14.98319,5.95983c0,.2609-.21121.47289-.47211.47289-.26168,0-.47289-.21198-.47289-.47289,0-.26168.21121-.47289.47289-.47289.2609,0,.47211.21121.47211.47289Zm-.16462,0c0-.17005-.13822-.30749-.30749-.30749-.17005,0-.30827.13744-.30827.30749,0,.16928.13822.30749.30827.30749.16928,0,.30749-.13822.30749-.30749Z" style="fill: #fff;"></path>
<path d="m16.45311,5.5048l-.31215.90928h-.14676l-.22053-.64139-.22053.64139h-.14676l-.31215-.90928h.16539l.22053.64217.22053-.64217h.14598l.2213.64217.22053-.64217h.16462Z" style="fill: #fff;"></path>
<path d="m16.73187,6.0103c.02407.14598.15064.25702.30361.25702.09939,0,.18791-.04737.2446-.12113l.13744.09163c-.08619.11803-.22518.1949-.38204.1949-.2446,0-.44493-.18558-.47056-.42242-.00155-.01708-.00233-.03339-.00233-.05047,0-.03028.00233-.05901.00776-.08774.04115-.21897.23373-.38514.46512-.38514.23062,0,.42319.16617.46435.38514.00544.02873.00776.05746.00776.08774,0,.01708-.00078.03339-.00233.05047h-.77339Zm.5979-.13822c-.03727-.12735-.1553-.21975-.29429-.21975-.13977,0-.2578.0924-.29507.21975h.58936Z" style="fill: #fff;"></path>
<path d="m18.25303,5.51567l-.03339.16772c-.03339-.02019-.07299-.03106-.1157-.03106-.12657,0-.22907.1025-.22907.22907v.53268h-.16539v-.90928h.16539v.08619c.05047-.06445.12579-.10405.22907-.10405.0528,0,.10327.01009.14909.02873Z" style="fill: #fff;"></path>
<path d="m18.5085,6.0103c.02407.14598.15064.25702.30361.25702.09939,0,.18791-.04737.2446-.12113l.13744.09163c-.08619.11803-.22518.1949-.38204.1949-.2446,0-.44493-.18558-.47056-.42242-.00155-.01708-.00233-.03339-.00233-.05047,0-.03028.00233-.05901.00776-.08774.04115-.21897.23373-.38514.46512-.38514.23062,0,.42319.16617.46435.38514.00544.02873.00776.05746.00776.08774,0,.01708-.00078.03339-.00233.05047h-.77339Zm.5979-.13822c-.03727-.12735-.1553-.21975-.29429-.21975-.13977,0-.2578.0924-.29507.21975h.58936Z" style="fill: #fff;"></path>
<path d="m20.3853,5.0917v1.32238h-.16462v-.12113c-.07221.08619-.17704.13977-.30749.13977-.26168,0-.47289-.21198-.47289-.47289,0-.26168.21121-.47289.47289-.47289.13045,0,.23528.0528.30749.13899v-.53423h.16462Zm-.16462.86813c0-.17005-.13822-.30749-.30749-.30749-.17005,0-.30827.13744-.30827.30749,0,.16928.13822.30749.30827.30749.16928,0,.30749-.13822.30749-.30749Z" style="fill: #fff;"></path>
<path d="m21.96548,6.08329h-.61965l-.13045.33079h-.16539l.52336-1.32238h.16539l.52336,1.32238h-.16539l-.13123-.33079Zm-.06134-.15608l-.24848-.62664-.2477.62664h.49618Z" style="fill: #fff;"></path>
<path d="m22.59755,6.41408h-.16462v-1.32238h.16462v1.32238Z" style="fill: #fff;"></path>
<path d="m23.7724,5.95983c0,.2609-.21121.47289-.47211.47289-.26168,0-.47289-.21198-.47289-.47289,0-.26168.21121-.47289.47289-.47289.2609,0,.47211.21121.47211.47289Zm-.16462,0c0-.17005-.13822-.30749-.30749-.30749-.17005,0-.30827.13744-.30827.30749,0,.16928.13822.30749.30827.30749.16928,0,.30749-.13822.30749-.30749Z" style="fill: #fff;"></path>
<path d="m24.23985,5.24778v1.1663h-.16539v-1.1663h-.3502v-.15608h.86269v.15608h-.3471Z" style="fill: #fff;"></path>
</g>
</svg>